<svg xmlns="http://www.w3.org/2000/svg" xmlns:xlink="http://www.w3.org/1999/xlink" width="512" zoomAndPan="magnify" viewBox="0 0 384 254.999984" height="340" preserveAspectRatio="xMidYMid meet" version="1.0"><defs><clipPath id="9f2bec015a"><path d="M 118 116 L 256 116 L 256 254.964844 L 118 254.964844 Z M 118 116 " clip-rule="nonzero"/></clipPath><clipPath id="4f1f7f5587"><path d="M 136 5.214844 L 253 5.214844 L 253 180 L 136 180 Z M 136 5.214844 " clip-rule="nonzero"/></clipPath></defs><path stroke-linecap="butt" transform="matrix(0.75, 0, 0, 0.75, 20.819915, -91.323766)" fill="none" stroke-linejoin="miter" d="M 330.42244 198.749417 C 326.839106 200.270251 323.026606 201.650459 318.979731 202.884834 C 298.917228 208.989002 277.146393 219.718169 256.563057 218.462961 C 240.182847 217.452544 221.776595 209.442127 205.917219 202.744209 C 194.859926 198.08275 183.81305 192.947333 172.771382 187.337958 " stroke="#fbbf00" stroke-width="2" stroke-opacity="1" stroke-miterlimit="4"/><path stroke-linecap="butt" transform="matrix(0.75, 0, 0, 0.75, 20.819915, -91.323766)" fill="none" stroke-linejoin="miter" d="M 345.792233 392.598396 C 342.406816 392.410896 338.984941 392.686937 335.516191 393.431729 C 330.724523 394.468188 327.385981 395.061938 325.505773 395.212979 C 311.651605 396.327563 297.22452 397.218188 284.089102 399.11923 C 264.724517 401.90048 242.354723 406.035897 216.97972 411.525481 C 209.583886 413.129648 204.500552 414.426523 201.729718 415.416106 " stroke="#fbbf00" stroke-width="2" stroke-opacity="1" stroke-miterlimit="4"/><path stroke-linecap="butt" transform="matrix(0.75, 0, 0, 0.75, 20.819915, -91.323766)" fill="none" stroke-linejoin="miter" d="M 65.156787 341.447349 C 69.938038 331.494223 72.77658 322.348388 73.667205 314.004638 C 76.323455 289.530677 71.385955 265.317132 66.427621 236.202546 C 66.292204 235.364004 65.818246 233.473379 65.016162 230.535879 C 64.479704 228.567129 64.203662 226.629628 64.177621 224.723378 " stroke="#fbbf00" stroke-width="2" stroke-opacity="1" stroke-miterlimit="4"/><path fill="#ffce00" d="M 83.988281 15.019531 C 83.988281 16.011719 83.890625 16.992188 83.699219 17.964844 C 83.503906 18.933594 83.21875 19.878906 82.839844 20.792969 C 82.460938 21.707031 81.996094 22.578125 81.445312 23.402344 C 80.894531 24.222656 80.269531 24.988281 79.570312 25.6875 C 78.867188 26.386719 78.105469 27.011719 77.285156 27.5625 C 76.460938 28.113281 75.589844 28.578125 74.675781 28.957031 C 73.761719 29.335938 72.816406 29.621094 71.84375 29.816406 C 70.875 30.007812 69.894531 30.105469 68.902344 30.105469 C 67.910156 30.105469 66.929688 30.007812 65.960938 29.816406 C 64.988281 29.621094 64.042969 29.335938 63.128906 28.957031 C 62.214844 28.578125 61.34375 28.113281 60.519531 27.5625 C 59.699219 27.011719 58.9375 26.386719 58.234375 25.6875 C 57.535156 24.988281 56.910156 24.222656 56.359375 23.402344 C 55.808594 22.578125 55.34375 21.707031 54.964844 20.792969 C 54.585938 19.878906 54.300781 18.933594 54.105469 17.964844 C 53.914062 16.992188 53.816406 16.011719 53.816406 15.019531 C 53.816406 14.03125 53.914062 13.046875 54.105469 12.078125 C 54.300781 11.105469 54.585938 10.164062 54.964844 9.246094 C 55.34375 8.332031 55.808594 7.460938 56.359375 6.640625 C 56.910156 5.816406 57.535156 5.054688 58.234375 4.351562 C 58.9375 3.652344 59.699219 3.027344 60.519531 2.476562 C 61.34375 1.925781 62.214844 1.460938 63.128906 1.082031 C 64.042969 0.703125 64.988281 0.417969 65.960938 0.222656 C 66.929688 0.03125 67.910156 -0.0664062 68.902344 -0.0664062 C 69.894531 -0.0664062 70.875 0.03125 71.84375 0.222656 C 72.816406 0.417969 73.761719 0.703125 74.675781 1.082031 C 75.589844 1.460938 76.460938 1.925781 77.285156 2.476562 C 78.105469 3.027344 78.867188 3.652344 79.570312 4.351562 C 80.269531 5.054688 80.894531 5.816406 81.445312 6.640625 C 81.996094 7.460938 82.460938 8.332031 82.839844 9.246094 C 83.21875 10.164062 83.503906 11.105469 83.699219 12.078125 C 83.890625 13.046875 83.988281 14.03125 83.988281 15.019531 Z M 83.988281 15.019531 " fill-opacity="1" fill-rule="nonzero"/><path fill="#f6b000" d="M 206.226562 6.136719 C 200.15625 8.609375 193.863281 11.171875 188.121094 14.351562 C 175.175781 21.53125 162.710938 29.457031 150.726562 38.125 C 150.457031 38.328125 150.226562 38.285156 150.035156 38.007812 L 149.835938 37.71875 C 149.734375 37.570312 149.699219 37.410156 149.730469 37.230469 C 149.761719 37.054688 149.847656 36.917969 149.996094 36.816406 C 163.027344 27.605469 176.269531 19.1875 189.730469 11.566406 C 192.503906 9.996094 197.261719 7.859375 204.003906 5.15625 C 209.28125 3.035156 214.820312 1.78125 220.621094 1.386719 C 224.875 1.089844 229.054688 1.773438 233.152344 3.441406 C 233.273438 3.492188 233.339844 3.582031 233.355469 3.714844 C 233.367188 3.84375 233.316406 3.945312 233.207031 4.015625 L 232.890625 4.238281 C 232.449219 4.535156 231.960938 4.640625 231.425781 4.554688 C 229.34375 4.222656 227.355469 3.816406 225.460938 3.335938 C 221.769531 2.394531 217.507812 3.742188 213.828125 4.121094 C 211.441406 4.375 208.90625 5.046875 206.226562 6.136719 Z M 206.226562 6.136719 " fill-opacity="1" fill-rule="nonzero"/><path fill="#f6b000" d="M 296.242188 5.339844 C 300.234375 14.039062 292.421875 29.371094 288.15625 37.105469 C 285.523438 41.875 284.917969 41.632812 286.339844 36.371094 C 288.753906 27.398438 288.765625 18.886719 286.367188 10.847656 C 285.378906 7.550781 286.316406 4.980469 289.179688 3.140625 C 292.292969 1.144531 294.648438 1.875 296.242188 5.339844 Z M 296.242188 5.339844 " fill-opacity="1" fill-rule="nonzero"/><path fill="#f6b000" d="M 268.636719 57.738281 C 265.949219 58.878906 263.089844 59.914062 260.054688 60.839844 C 245.007812 65.417969 228.679688 73.464844 213.242188 72.523438 C 200.957031 71.765625 187.152344 65.757812 175.257812 60.734375 C 166.964844 57.238281 158.679688 53.386719 150.398438 49.179688 C 171.039062 36.585938 190.082031 25.992188 207.535156 17.402344 C 221.300781 10.609375 236.492188 17.21875 247.050781 27.882812 C 254.566406 35.488281 261.765625 45.4375 268.636719 57.738281 Z M 268.636719 57.738281 " fill-opacity="1" fill-rule="nonzero"/><path fill="#f6b000" d="M 274.039062 44.105469 C 271.320312 39.238281 269.171875 35.339844 264.777344 31.453125 C 264.191406 30.9375 263.808594 30.304688 263.625 29.554688 C 263.277344 28.109375 263.441406 27.050781 264.125 26.390625 C 265.152344 25.386719 266.265625 25.277344 267.460938 26.0625 C 272.667969 29.492188 274.65625 38.402344 274.617188 43.949219 C 274.609375 44.734375 274.414062 44.785156 274.039062 44.105469 Z M 274.039062 44.105469 " fill-opacity="1" fill-rule="nonzero"/><path fill="#ffce00" d="M 150.398438 49.179688 C 158.679688 53.386719 166.964844 57.238281 175.257812 60.734375 C 187.152344 65.757812 200.957031 71.765625 213.242188 72.523438 C 228.679688 73.464844 245.007812 65.417969 260.054688 60.839844 C 263.089844 59.914062 265.949219 58.878906 268.636719 57.738281 C 278.300781 54.554688 288.152344 53.070312 298.191406 53.289062 C 308.765625 53.511719 318.511719 57.125 323.445312 67.199219 C 327.152344 74.769531 329.507812 82.726562 330.507812 91.074219 C 332.578125 108.371094 331.816406 124.757812 328.234375 140.230469 C 322.332031 165.703125 308.464844 188.824219 284.3125 199.929688 C 283.535156 200.289062 282.824219 200.75 282.179688 201.316406 C 281.445312 201.972656 280.773438 202.574219 280.164062 203.125 C 277.625 202.984375 275.058594 203.191406 272.457031 203.75 C 268.863281 204.527344 266.359375 204.972656 264.949219 205.085938 C 254.558594 205.921875 243.738281 206.589844 233.886719 208.015625 C 219.363281 210.101562 202.585938 213.203125 183.554688 217.320312 C 178.007812 218.523438 174.195312 219.496094 172.117188 220.238281 C 155.390625 223.011719 138.101562 226.214844 120.253906 229.851562 C 114.375 231.046875 105.8125 231.414062 94.558594 230.953125 C 82.398438 230.445312 72.460938 226.050781 64.742188 217.765625 C 58.96875 211.570312 56.449219 205 57.191406 198.046875 C 57.808594 192.40625 59.5625 187.265625 62.113281 182.070312 C 64.886719 176.394531 67.410156 170.625 69.6875 164.761719 C 73.273438 157.296875 75.402344 150.4375 76.070312 144.179688 C 78.0625 125.824219 74.359375 107.664062 70.640625 85.828125 C 70.539062 85.199219 70.183594 83.78125 69.582031 81.578125 C 69.179688 80.101562 68.972656 78.648438 68.953125 77.21875 C 68.167969 68.453125 68.382812 60.574219 69.59375 53.578125 C 71.402344 43.214844 79.867188 34.097656 91.039062 33.074219 C 95.835938 32.648438 100.273438 32.847656 104.347656 33.675781 C 118.40625 36.539062 132.511719 41.457031 146.660156 48.4375 C 147.53125 48.863281 148.777344 49.113281 150.398438 49.179688 Z M 150.398438 49.179688 " fill-opacity="1" fill-rule="nonzero"/><path fill="#f6b000" d="M 68.953125 77.21875 C 68.972656 78.648438 69.179688 80.101562 69.582031 81.578125 C 70.183594 83.78125 70.539062 85.199219 70.640625 85.828125 C 74.359375 107.664062 78.0625 125.824219 76.070312 144.179688 C 75.402344 150.4375 73.273438 157.296875 69.6875 164.761719 C 59.394531 157.53125 51.027344 149.84375 44.578125 141.695312 C 31.746094 125.5 34.007812 103.4375 48.609375 89.542969 C 54.085938 84.335938 60.867188 80.230469 68.953125 77.21875 Z M 68.953125 77.21875 " fill-opacity="1" fill-rule="nonzero"/><path fill="#ffce00" d="M 331.6875 161.871094 C 334.488281 155.25 336.761719 147.78125 338.515625 139.457031 C 339.433594 135.128906 338.933594 130.667969 339.640625 126.164062 C 339.683594 125.851562 339.792969 125.550781 339.96875 125.261719 C 340.113281 125.027344 340.320312 124.9375 340.589844 124.992188 C 340.859375 125.046875 341.015625 125.210938 341.054688 125.484375 C 341.753906 130.257812 341.585938 134.625 340.558594 138.59375 C 339.394531 143.109375 338.726562 147.570312 337.496094 151.953125 C 335.28125 159.804688 331.257812 168.714844 325.433594 178.683594 C 319.796875 188.3125 311.800781 196.015625 301.4375 201.789062 C 300.90625 202.085938 300.199219 202.199219 299.316406 202.128906 C 298.507812 202.066406 298.175781 201.613281 298.324219 200.769531 C 298.359375 200.613281 298.445312 200.492188 298.585938 200.414062 C 306.835938 195.878906 312.902344 191.230469 316.785156 186.46875 C 323.003906 178.84375 327.972656 170.644531 331.6875 161.871094 Z M 331.6875 161.871094 " fill-opacity="1" fill-rule="nonzero"/><path fill="#ffce00" d="M 54.234375 173.90625 C 52.15625 177.726562 51.292969 182.136719 49.917969 186.273438 C 47.773438 192.667969 47.890625 201.410156 48.53125 207.648438 C 49.148438 213.773438 51.554688 218.636719 55.738281 222.238281 C 56.882812 223.222656 57.964844 224.191406 58.984375 225.144531 C 59.585938 225.703125 59.476562 225.949219 58.65625 225.890625 C 52.980469 225.457031 49.644531 217.488281 47.65625 213.328125 C 46.675781 211.304688 46.207031 209.21875 46.242188 207.074219 C 46.347656 201.777344 45.535156 196.632812 46.671875 191.414062 C 48.269531 184.019531 50.9375 174.273438 55.53125 168.113281 C 57.039062 166.089844 57.382812 166.265625 56.5625 168.648438 C 55.960938 170.402344 55.1875 172.15625 54.234375 173.90625 Z M 54.234375 173.90625 " fill-opacity="1" fill-rule="nonzero"/><path fill="#f6b000" d="M 280.164062 203.125 C 277.25 208.015625 273.574219 212.476562 269.132812 216.507812 C 267.824219 217.683594 267.40625 219.582031 268.101562 221.246094 C 270.847656 227.746094 265.980469 235.308594 260.160156 238.265625 C 253.609375 241.589844 247.761719 240.289062 242.613281 234.367188 C 241.359375 232.929688 239.792969 232.398438 237.917969 232.785156 C 224.386719 235.542969 210.585938 233.882812 197.082031 229.972656 C 189.265625 227.703125 180.945312 224.457031 172.117188 220.238281 C 174.195312 219.496094 178.007812 218.523438 183.554688 217.320312 C 202.585938 213.203125 219.363281 210.101562 233.886719 208.015625 C 243.738281 206.589844 254.558594 205.921875 264.949219 205.085938 C 266.359375 204.972656 268.863281 204.527344 272.457031 203.75 C 275.058594 203.191406 277.625 202.984375 280.164062 203.125 Z M 280.164062 203.125 " fill-opacity="1" fill-rule="nonzero"/><path fill="#ffce00" d="M 165.5 229.539062 C 155.738281 233.910156 148.28125 238.90625 141.910156 248.105469 C 139.253906 251.953125 131.296875 253.875 130.800781 247.476562 C 130.328125 241.535156 140.15625 236.1875 144.828125 234.445312 C 151.515625 231.949219 158.363281 230.167969 165.367188 229.09375 C 166.527344 228.910156 166.570312 229.058594 165.5 229.539062 Z M 165.5 229.539062 " fill-opacity="1" fill-rule="nonzero"/><path fill="#f6b000" d="M 288.355469 238.136719 C 288.355469 238.628906 288.304688 239.121094 288.207031 239.609375 C 288.113281 240.09375 287.96875 240.566406 287.78125 241.023438 C 287.589844 241.480469 287.355469 241.917969 287.082031 242.328125 C 286.804688 242.742188 286.492188 243.121094 286.144531 243.472656 C 285.792969 243.824219 285.410156 244.136719 285 244.410156 C 284.585938 244.6875 284.152344 244.921875 283.695312 245.109375 C 283.234375 245.300781 282.765625 245.441406 282.277344 245.539062 C 281.792969 245.636719 281.300781 245.683594 280.804688 245.683594 C 280.308594 245.683594 279.816406 245.636719 279.332031 245.539062 C 278.847656 245.441406 278.375 245.300781 277.914062 245.109375 C 277.457031 244.921875 277.023438 244.6875 276.609375 244.410156 C 276.199219 244.136719 275.816406 243.824219 275.464844 243.472656 C 275.117188 243.121094 274.804688 242.742188 274.527344 242.328125 C 274.253906 241.917969 274.019531 241.480469 273.832031 241.023438 C 273.640625 240.566406 273.496094 240.09375 273.402344 239.609375 C 273.304688 239.121094 273.253906 238.628906 273.253906 238.136719 C 273.253906 237.640625 273.304688 237.148438 273.402344 236.664062 C 273.496094 236.175781 273.640625 235.703125 273.832031 235.246094 C 274.019531 234.789062 274.253906 234.351562 274.527344 233.941406 C 274.804688 233.527344 275.117188 233.148438 275.464844 232.796875 C 275.816406 232.445312 276.199219 232.132812 276.609375 231.859375 C 277.023438 231.582031 277.457031 231.351562 277.914062 231.160156 C 278.375 230.972656 278.847656 230.828125 279.332031 230.730469 C 279.816406 230.632812 280.308594 230.585938 280.804688 230.585938 C 281.300781 230.585938 281.792969 230.632812 282.277344 230.730469 C 282.765625 230.828125 283.234375 230.972656 283.695312 231.160156 C 284.152344 231.351562 284.585938 231.582031 285 231.859375 C 285.410156 232.132812 285.792969 232.445312 286.144531 232.796875 C 286.492188 233.148438 286.804688 233.527344 287.082031 233.941406 C 287.355469 234.351562 287.589844 234.789062 287.78125 235.246094 C 287.96875 235.703125 288.113281 236.175781 288.207031 236.664062 C 288.304688 237.148438 288.355469 237.640625 288.355469 238.136719 Z M 288.355469 238.136719 " fill-opacity="1" fill-rule="nonzero"/><path fill="#ffce00" d="M 165.316406 252.371094 C 164.636719 246.457031 170.785156 238.398438 174.800781 234.96875 C 176.824219 233.242188 177.179688 233.535156 175.859375 235.84375 C 173.226562 240.460938 171.878906 245.324219 171.816406 250.433594 C 171.816406 251.027344 171.667969 251.585938 171.375 252.109375 C 170.308594 254 169.117188 254.890625 167.800781 254.777344 C 166.320312 254.648438 165.488281 253.84375 165.316406 252.371094 Z M 165.316406 252.371094 " fill-opacity="1" fill-rule="nonzero"/><g clip-path="url(#9f2bec015a)"><path fill="#84bc26" d="M 253.75 222.304688 L 216.683594 131.5625 C 211.902344 119.847656 198.808594 114.027344 186.996094 118.128906 C 175.179688 114.027344 162.089844 119.847656 157.304688 131.5625 L 120.242188 222.304688 C 115.292969 234.421875 121.101562 248.257812 133.222656 253.210938 C 136.15625 254.40625 139.191406 254.972656 142.175781 254.972656 C 151.519531 254.972656 160.375 249.414062 164.125 240.230469 L 186.996094 184.234375 L 209.867188 240.230469 C 213.617188 249.414062 222.472656 254.972656 231.816406 254.972656 C 234.800781 254.972656 237.835938 254.40625 240.769531 253.210938 C 252.886719 248.257812 258.699219 234.421875 253.75 222.304688 " fill-opacity="1" fill-rule="nonzero"/></g><path fill="#84bc26" d="M 186.996094 87.054688 L 136.300781 133.339844 L 132.964844 130.292969 C 119.023438 117.566406 118.039062 95.941406 130.769531 82 C 137.511719 74.617188 146.75 70.867188 156.019531 70.867188 C 164.25 70.867188 172.503906 73.820312 179.058594 79.808594 L 186.996094 87.054688 " fill-opacity="1" fill-rule="nonzero"/><g clip-path="url(#4f1f7f5587)"><path fill="#070045" d="M 186.996094 5.257812 C 169.921875 5.257812 156.085938 19.097656 156.085938 36.167969 C 156.085938 53.242188 169.921875 67.082031 186.996094 67.082031 C 204.066406 67.082031 217.90625 53.242188 217.90625 36.167969 C 217.90625 19.097656 204.066406 5.257812 186.996094 5.257812 Z M 241.027344 130.292969 L 237.691406 133.339844 L 186.996094 179.625 L 136.300781 133.339844 L 186.996094 87.054688 L 194.929688 79.808594 C 201.488281 73.820312 209.738281 70.867188 217.96875 70.867188 C 227.242188 70.867188 236.480469 74.617188 243.222656 82 C 255.953125 95.941406 254.96875 117.566406 241.027344 130.292969 " fill-opacity="1" fill-rule="nonzero"/></g></svg>